# xmcd
#
# Track frame offsets: 
#        182
#        12360
#        24300
#        40647
#        59142
#        76285
#        87250
#        100190
#        112092
#        125100
#        140907
#        191517
#
# Disc length: 2684 seconds
#
# Revision: 7
# Processed by: cddbd v1.5.2PL0 Copyright (c) Steve Scherf et al.
# Submitted via: ExactAudioCopyFreeDBPlugin 1.0
#
DISCID=a50a7a0c
DTITLE=Junior Brown - Guit With It
DYEAR=1993
DGENRE=Country
TTITLE0=Doin' What Comes Easy To A Fool
TTITLE1=Highway Patrol
TTITLE2=Junior Brown (Duet With Tanya Rae Brown) - So Close Yet So Far
TTITLE2=Away
TTITLE3=Sugar Foot Rag
TTITLE4=My Wife Thinks You're Dead
TTITLE5=You Didn't Have To Go All The Way
TTITLE6=Party Lights
TTITLE7=Names And Addresses
TTITLE8=Still Life With Rose
TTITLE9=Holding Pattern
TTITLE10=Guit-Steel Blues
TTITLE11=The Gal From Oklahoma
EXTD=
EXTT0=
EXTT1=
EXTT2=
EXTT3=
EXTT4=
EXTT5=
EXTT6=
EXTT7=
EXTT8=
EXTT9=
EXTT10=
EXTT11=
PLAYORDER=
